<svg width="28" height="25" viewBox="0 0 28 25" fill="none" xmlns="http://www.w3.org/2000/svg">
<path d="M10 0.666626L7.56001 3.33329H3.33334C1.86667 3.33329 0.666672 4.53329 0.666672 5.99996V22C0.666672 23.4666 1.86667 24.6666 3.33334 24.6666H24.6667C26.1333 24.6666 27.3333 23.4666 27.3333 22V5.99996C27.3333 4.53329 26.1333 3.33329 24.6667 3.33329H20.44L18 0.666626H10ZM14 20.6666C10.32 20.6666 7.33334 17.68 7.33334 14C7.33334 10.32 10.32 7.33329 14 7.33329C17.68 7.33329 20.6667 10.32 20.6667 14C20.6667 17.68 17.68 20.6666 14 20.6666Z" fill="#0e5c7c"/>
</svg>
