<svg width="22" height="29" viewBox="0 0 22 29" fill="none" xmlns="http://www.w3.org/2000/svg">
<path d="M15.3005 0.315063H4.10524C2.46971 0.315063 1.13851 1.6451 1.13851 3.27726V14.2307H0.848693C0.188584 14.2307 -0.346649 14.7647 -0.346649 15.4243V22.6632C-0.346649 23.3228 0.188584 23.8569 0.848693 23.8569H1.13851V25.1842C1.13851 26.8181 2.46977 28.1464 4.10524 28.1464H19.3808C21.0153 28.1464 22.3466 26.8181 22.3466 25.1842V7.32565L15.3005 0.315063ZM5.36297 20.8191C5.70609 20.8191 6.0865 20.7446 6.3107 20.6555L6.48188 21.5415C6.27323 21.6461 5.8031 21.7581 5.19172 21.7581C3.45334 21.7581 2.55811 20.6782 2.55811 19.248C2.55811 17.535 3.78172 16.5816 5.30342 16.5816C5.89288 16.5816 6.34029 16.7007 6.5416 16.8045L6.3107 17.706C6.07921 17.6087 5.75852 17.5196 5.35574 17.5196C4.45276 17.5196 3.75166 18.0635 3.75166 19.1808C3.75166 20.186 4.34846 20.8191 5.36297 20.8191ZM19.3807 26.3323H4.10524C3.47196 26.3323 2.95621 25.8174 2.95621 25.1842V23.8569H17.1961C17.8564 23.8569 18.3917 23.3228 18.3917 22.6632V15.4243C18.3917 14.7647 17.8564 14.2307 17.1961 14.2307H2.95621V3.27726C2.95621 2.64581 3.47196 2.13091 4.10524 2.13091L14.6209 2.12V6.00099C14.6209 7.13453 15.542 8.05523 16.6782 8.05523L20.4859 8.04438L20.5287 25.1842C20.5287 25.8174 20.0139 26.3323 19.3807 26.3323ZM8.48377 19.5756C7.64814 19.2854 7.10337 18.8232 7.10337 18.0935C7.10337 17.2364 7.81944 16.5815 9.00576 16.5815C9.5725 16.5815 9.99078 16.7006 10.2887 16.8344L10.0354 17.7506C9.83405 17.6541 9.4759 17.5121 8.98345 17.5121C8.491 17.5121 8.25229 17.736 8.25229 17.9963C8.25229 18.3165 8.53563 18.4584 9.18481 18.704C10.0728 19.0316 10.4905 19.4937 10.4905 20.2015C10.4905 21.043 9.84128 21.7581 8.46134 21.7581C7.88685 21.7581 7.31971 21.6089 7.03636 21.4524L7.26773 20.5144C7.5735 20.6709 8.04364 20.8265 8.52834 20.8265C9.05045 20.8265 9.32651 20.6108 9.32651 20.2833C9.32657 19.9704 9.08786 19.7912 8.48377 19.5756ZM12.5143 19.5756C11.6788 19.2854 11.1339 18.8232 11.1339 18.0935C11.1339 17.2364 11.85 16.5815 13.0363 16.5815C13.6036 16.5815 14.0208 16.7006 14.3196 16.8344L14.066 17.7506C13.8645 17.6541 13.5065 17.5121 13.014 17.5121C12.5215 17.5121 12.2828 17.736 12.2828 17.9963C12.2828 18.3165 12.5662 18.4584 13.2154 18.704C14.1033 19.0316 14.5212 19.4937 14.5212 20.2015C14.5212 21.043 13.872 21.7581 12.492 21.7581C11.9175 21.7581 11.3503 21.6089 11.0669 21.4524L11.2984 20.5144C11.6041 20.6709 12.0742 20.8265 12.5589 20.8265C13.081 20.8265 13.3571 20.6108 13.3571 20.2833C13.3571 19.9704 13.1183 19.7912 12.5143 19.5756Z" fill="#0e5c7c"/>
</svg>
