<svg width="34" height="33" viewBox="0 0 34 33" fill="none" xmlns="http://www.w3.org/2000/svg">
<path d="M33.375 2.4375C33.75 2.8125 33.9375 3.3125 33.9375 3.875C33.9375 4.4375 33.75 4.9375 33.375 5.3125L30.5 8.1875C30.25 8.4375 29.9375 8.625 29.625 8.75L27.375 9.5L22.5625 14.25C23.125 15 23.5625 15.875 23.75 16.75C24.25 18.875 23.8125 20.9375 22.375 22.375C21.8125 22.9375 21.125 23.375 20.3125 23.625C19.125 24 18.25 25.0625 18.1875 26.25C18 27.75 17.4375 29.125 16.375 30.1875C13.5625 33 8.4375 32.5 4.9375 29.0625C1.5 25.5625 0.9375 20.4375 3.8125 17.625C4.875 16.5625 6.25 16 7.75 15.875C8.9375 15.75 10 14.875 10.375 13.6875C10.625 12.875 11.0625 12.1875 11.625 11.625C13.0625 10.1875 15.125 9.75 17.25 10.25C18.1875 10.4375 19 10.875 19.75 11.4375L24.5 6.625L25.25 4.375C25.375 4.0625 25.5625 3.75 25.8125 3.5L28.6875 0.625C29.0625 0.25 29.5625 0 30.125 0C30.6875 0 31.1875 0.25 31.5625 0.625L33.375 2.4375ZM15 22C16.625 22 18 20.6875 18 19C18 17.375 16.625 16 15 16C13.3125 16 12 17.375 12 19C12 20.6875 13.3125 22 15 22Z" fill="#0e5c7c"/>
</svg>
