<svg width="28" height="28" viewBox="0 0 28 28" fill="none" xmlns="http://www.w3.org/2000/svg">
<path d="M25 0C26.625 0 28 1.375 28 3V25C28 26.6875 26.625 28 25 28H3C1.3125 28 0 26.6875 0 25V3C0 1.375 1.3125 0 3 0H25ZM15.1875 21.875V12.875H12.5625V21.8125C12.5625 23.125 12 23.5 11.1875 23.5C10.25 23.5 9.875 22.875 9.5 22.125L7.3125 23.4375C7.9375 24.75 9.1875 25.8125 11.25 25.8125C13.625 25.8125 15.1875 24.5625 15.1875 21.875ZM21.4375 25.8125C23.9375 25.8125 25.8125 24.5625 25.8125 22.1875C25.8125 20 24.5625 19 22.3125 18.0625L21.625 17.75C20.5 17.25 20 16.9375 20 16.125C20 15.5 20.5 15 21.25 15C22.0625 15 22.5 15.375 23 16.125L25 14.8125C24.1875 13.3125 22.9375 12.75 21.3125 12.75C18.9375 12.75 17.4375 14.25 17.4375 16.1875C17.4375 18.375 18.6875 19.375 20.5625 20.1875L21.25 20.4375C22.4375 21 23.1875 21.3125 23.1875 22.1875C23.1875 22.9375 22.4375 23.5 21.375 23.5C20.0625 23.5 19.375 22.8125 18.8125 21.9375L16.625 23.125C17.4375 24.6875 19 25.8125 21.4375 25.8125Z" fill="#0e5c7c"/>
</svg>
