<svg width="40" height="26" viewBox="0 0 40 26" fill="none" xmlns="http://www.w3.org/2000/svg">
<path d="M19.75 25.25C19.625 25.25 19.5 25.25 19.375 25.1875L18.1875 24.4375C18 24.375 18.0625 24.3125 18.125 24.3125C18.375 24.25 18.4375 24.1875 18.6875 24.0625H18.75L19.6875 24.625C19.6875 24.625 19.75 24.625 19.8125 24.625L23.4375 22.5C23.4375 22.5 23.4375 22.5 23.4375 22.4375V18.25C23.4375 18.1875 23.4375 18.1875 23.4375 18.1875L19.8125 16.0625C19.75 16.0625 19.75 16.0625 19.6875 16.0625L16.0625 18.1875L16 18.25V22.4375L16.0625 22.5L17.0625 23.0625C17.625 23.375 17.9375 23.0625 17.9375 22.75V18.625C17.9375 18.5625 18 18.5 18.0625 18.5H18.5C18.5625 18.5 18.625 18.5625 18.625 18.625V22.75C18.625 23.4375 18.1875 23.875 17.5 23.875C17.3125 23.875 17.125 23.875 16.6875 23.625L15.75 23.0625C15.5 22.9375 15.375 22.6875 15.375 22.4375V18.25C15.375 18 15.5 17.75 15.75 17.625L19.375 15.5C19.5625 15.375 19.875 15.375 20.125 15.5L23.75 17.625C23.9375 17.75 24.125 18 24.125 18.25V22.4375C24.125 22.6875 23.9375 22.9375 23.75 23.0625L20.125 25.1875C20 25.25 19.875 25.25 19.75 25.25ZM22.6875 21.1875C22.6875 21.9375 22 22.375 20.875 22.375C19.25 22.375 18.9375 21.6875 18.9375 21.0625C18.9375 21 19 20.9375 19.0625 20.9375H19.5C19.5625 20.9375 19.625 21 19.625 21.0625C19.6875 21.5 19.875 21.75 20.875 21.75C21.625 21.75 21.9375 21.625 21.9375 21.1875C21.9375 20.9375 21.875 20.8125 20.6875 20.6875C19.6875 20.5625 19.0625 20.375 19.0625 19.5625C19.0625 18.8125 19.6875 18.375 20.6875 18.375C21.875 18.375 22.4375 18.8125 22.5 19.6875V19.75C22.4375 19.75 22.4375 19.75 22.4375 19.75H21.9375C21.875 19.75 21.875 19.75 21.8125 19.6875C21.75 19.1875 21.4375 19.0625 20.6875 19.0625C19.875 19.0625 19.8125 19.3125 19.8125 19.5625C19.8125 19.8125 19.875 19.875 21 20C22.125 20.1875 22.6875 20.375 22.6875 21.1875ZM26.0625 18.0625C26.0625 18.4375 25.75 18.75 25.375 18.75C25 18.75 24.6875 18.4375 24.6875 18.0625C24.6875 17.625 25 17.3125 25.375 17.3125C25.75 17.3125 26.0625 17.625 26.0625 18.0625ZM25.9375 18.0625C25.9375 17.6875 25.6875 17.4375 25.375 17.4375C25.0625 17.4375 24.8125 17.6875 24.8125 18.0625C24.8125 18.375 25.0625 18.625 25.375 18.625C25.6875 18.625 25.9375 18.375 25.9375 18.0625ZM25.6875 18.4375H25.5C25.5 18.375 25.5 18.1875 25.5 18.1875C25.4375 18.125 25.4375 18.125 25.375 18.125H25.25V18.4375H25.125V17.625H25.375C25.5 17.625 25.625 17.625 25.625 17.875C25.625 18 25.5625 18 25.5 18.0625C25.625 18.0625 25.625 18.125 25.625 18.1875C25.625 18.25 25.625 18.375 25.6875 18.4375ZM25.5 17.875C25.5 17.75 25.4375 17.75 25.375 17.75H25.25V18H25.375C25.5 18 25.5 17.9375 25.5 17.875ZM8.5625 8.9375V14.875C8.5625 15 8.5 15.0625 8.4375 15.125C8.375 15.125 8.25 15.125 8.1875 15.125L5.9375 13.8125C5.75 13.6875 5.6875 13.5625 5.6875 13.375V10.625C5.6875 10.4375 5.625 10.3125 5.4375 10.25L4.5 9.6875C4.4375 9.625 4.3125 9.625 4.25 9.625C4.1875 9.625 4.125 9.625 4 9.6875L3.0625 10.25C2.9375 10.3125 2.8125 10.4375 2.8125 10.625V13.375C2.8125 13.5625 2.75 13.6875 2.625 13.8125L0.3125 15.125C0.25 15.125 0.1875 15.125 0.0625 15.125C0 15.0625 0 15 0 14.875V8.9375C0 8.8125 0.0625 8.625 0.1875 8.5625L4 6.375C4.125 6.3125 4.1875 6.3125 4.25 6.3125C4.375 6.3125 4.4375 6.3125 4.5 6.375L8.3125 8.5625C8.4375 8.625 8.5625 8.8125 8.5625 8.9375ZM29.5 2.5V13.5C29.5 13.6875 29.4375 13.8125 29.25 13.9375L25.4375 16.125C25.3125 16.1875 25.125 16.1875 25 16.125L21.125 13.9375C21 13.8125 20.9375 13.6875 20.9375 13.5V9.0625C20.9375 8.9375 21 8.75 21.125 8.6875L25 6.5C25.125 6.375 25.3125 6.375 25.4375 6.5L26.375 7C26.5 7.0625 26.625 7 26.625 6.875V1C26.625 0.8125 26.8125 0.75 27 0.8125L29.25 2.0625C29.4375 2.1875 29.5 2.3125 29.5 2.5ZM26.625 10.5625C26.625 10.5 26.625 10.4375 26.5625 10.4375L25.25 9.6875C25.25 9.6875 25.1875 9.6875 25.125 9.6875L23.8125 10.4375C23.8125 10.4375 23.75 10.5 23.75 10.5625V12.0625C23.75 12.125 23.8125 12.125 23.8125 12.1875L25.125 12.9375C25.1875 12.9375 25.25 12.9375 25.25 12.9375L26.5625 12.1875C26.625 12.125 26.625 12.125 26.625 12.0625V10.5625ZM39.75 10.5L37.4375 11.8125C37.3125 11.9375 37.125 11.8125 37.125 11.625V10.5625C37.125 10.4375 37.0625 10.375 37 10.3125L35.75 9.625C35.6875 9.625 35.625 9.625 35.5625 9.625L34.375 10.3125C34.25 10.375 34.25 10.4375 34.25 10.5625V11.9375C34.25 12 34.25 12.0625 34.375 12.125L38.1875 14.3125C38.375 14.4375 38.375 14.625 38.1875 14.75L35.875 16C35.75 16.125 35.5625 16.125 35.4375 16L31.625 13.875C31.5 13.75 31.4375 13.625 31.4375 13.4375V9C31.4375 8.875 31.5 8.6875 31.625 8.625L35.5 6.4375C35.625 6.3125 35.8125 6.3125 35.9375 6.4375L39.75 8.625C39.875 8.6875 40 8.875 40 9V10.125C40 10.25 39.875 10.4375 39.75 10.5ZM34.9375 10.6875L35.625 10.3125C35.6875 10.25 35.6875 10.25 35.75 10.3125L36.5 10.6875C36.5 10.75 36.5 10.75 36.5 10.8125V11.625C36.5 11.6875 36.5 11.6875 36.5 11.6875L35.75 12.125C35.6875 12.1875 35.6875 12.1875 35.625 12.125L34.9375 11.6875C34.875 11.6875 34.875 11.6875 34.875 11.625V10.8125C34.875 10.75 34.875 10.75 34.9375 10.6875ZM19 13.4375C19 13.5 19 13.5 19 13.5625C19 13.6875 18.875 13.75 18.8125 13.8125L15 16.0625C14.8125 16.125 14.6875 16.125 14.5 16.0625L10.6875 13.8125C10.5625 13.75 10.4375 13.625 10.4375 13.4375V9.0625C10.4375 8.875 10.5625 8.6875 10.6875 8.625L14.5 6.4375C14.625 6.375 14.8125 6.375 14.9375 6.4375L18.75 8.625C18.9375 8.6875 19 8.875 19 9.0625V13.4375ZM14.375 5.625L14.3125 5.6875H14.375V5.625Z" fill="#0e5c7c"/>
</svg>
