<svg width="40" height="22" viewBox="0 0 40 22" fill="none" xmlns="http://www.w3.org/2000/svg">
<path d="M20 1.5625C9.25 1.5625 1 6.0625 1 11C1 16 9.25 20.5 20 20.5C30.6875 20.5 38.9375 16 38.9375 11C38.9375 6.0625 30.6875 1.5625 20 1.5625ZM20 0.5C31 0.5 40 5.1875 40 11C40 16.8125 31 21.5625 20 21.5625C8.9375 21.5625 0 16.8125 0 11C0 5.1875 8.9375 0.5 20 0.5ZM13.625 10.1875C14.0625 7.8125 12.4375 8.0625 10.0625 8.0625L9.25 12.4375C11.375 12.4375 13.125 12.6875 13.625 10.1875ZM6.0625 16.9375L8.125 6.375H12.5C13.875 6.375 14.8125 6.75 15.4375 7.4375C16.5625 8.75 16.1875 11.4375 14.5625 12.9375C13.0625 14.3125 11.4375 14.125 8.875 14.125L8.375 16.9375H6.0625ZM17.6875 3.5625H19.9375L19.375 6.375C21.375 6.375 23.1875 6.25 24.0625 7.0625C25 7.875 24.5625 9 23.5625 14.125H21.25C22.1875 9.125 22.375 8.75 22.0625 8.375C21.6875 8 20.9375 8.0625 19.0625 8.0625L17.875 14.125H15.625L17.6875 3.5625ZM31.5625 10.1875C32 7.8125 30.375 8.0625 28 8.0625L27.125 12.4375C29.25 12.4375 31.0625 12.75 31.5625 10.1875ZM24 16.9375L26.0625 6.375H30.4375C31.75 6.375 32.75 6.75 33.375 7.4375C34.5 8.75 34.125 11.4375 32.4375 12.9375C31 14.25 29.5 14.125 26.8125 14.125L26.3125 16.9375H24Z" fill="#0e5c7c"/>
</svg>
