<svg width="32" height="30" viewBox="0 0 32 30" fill="none" xmlns="http://www.w3.org/2000/svg">
<path d="M26.125 10.125C29.5 11.25 32 13.125 32 15C32 17 29.375 18.9375 25.75 20.125C25.5625 20.1875 25.375 20.25 25.1875 20.3125C25.25 20.5625 25.3125 20.875 25.375 21.125C26.0625 24.75 25.5 27.6875 23.8125 28.6875C22.1875 29.625 19.5625 28.6875 16.875 26.375C16.5625 26.125 16.3125 25.875 16 25.625C15.8125 25.8125 15.5625 26 15.375 26.1875C12.625 28.625 9.75 29.625 8.0625 28.625C6.4375 27.6875 5.9375 24.9375 6.5625 21.5C6.6875 21.125 6.75 20.75 6.8125 20.375C6.5625 20.3125 6.25 20.1875 6 20.125C2.5 18.9375 0 16.9375 0 15C0 13.125 2.375 11.3125 5.6875 10.125C6.0625 10 6.4375 9.875 6.875 9.75C6.75 9.4375 6.6875 9.0625 6.625 8.75C5.9375 5.1875 6.4375 2.375 8.0625 1.4375C9.75 0.4375 12.625 1.5 15.5 4C15.625 4.1875 15.8125 4.3125 16 4.5C16.25 4.25 16.5 4 16.75 3.8125C19.5 1.4375 22.1875 0.4375 23.8125 1.375C25.5 2.375 26 5.375 25.25 9.0625C25.1875 9.3125 25.125 9.5625 25.125 9.8125C25.4375 9.875 25.75 10 26.125 10.125ZM17.625 4.8125C17.375 5 17.1875 5.25 16.9375 5.4375C17.875 6.5 18.75 7.625 19.5625 8.8125C21 8.9375 22.375 9.125 23.8125 9.4375C23.875 9.25 23.875 9.0625 23.9375 8.8125C24.625 5.625 24.1875 3.125 23.125 2.5625C22.125 2 20 2.75 17.625 4.8125ZM10.4375 18.25C10.125 17.6875 9.8125 17.1875 9.5 16.625C9.125 17.5625 8.8125 18.5 8.5 19.375C9.4375 19.625 10.4375 19.75 11.4375 19.875C11.0625 19.3125 10.75 18.8125 10.4375 18.25ZM8.5 10.75C8.8125 11.625 9.125 12.5 9.5 13.4375C9.8125 12.875 10.125 12.375 10.4375 11.8125C10.75 11.3125 11.0625 10.75 11.375 10.25C10.375 10.375 9.4375 10.5 8.5 10.75ZM10.25 15.0625C10.6875 15.875 11.125 16.75 11.5625 17.5625C12.0625 18.375 12.5625 19.1875 13.125 20C14.0625 20.0625 15 20.125 16 20.125C16.9375 20.125 17.9375 20.0625 18.875 20C19.375 19.1875 19.875 18.375 20.375 17.5625C20.875 16.75 21.3125 15.875 21.6875 15C21.3125 14.125 20.8125 13.3125 20.375 12.5C19.875 11.6875 19.375 10.875 18.8125 10.0625C17.9375 10 16.9375 9.9375 16 9.9375C15 9.9375 14.0625 10 13.125 10.0625C12.5625 10.875 12.0625 11.6875 11.5625 12.5C11.125 13.3125 10.625 14.1875 10.25 15.0625ZM21.5 18.25C21.1875 18.75 20.875 19.3125 20.5625 19.8125C21.5625 19.75 22.5 19.5625 23.5 19.3125C23.1875 18.375 22.8125 17.5 22.4375 16.5625C22.125 17.125 21.875 17.6875 21.5 18.25ZM22.4375 13.4375C22.8125 12.5625 23.125 11.6875 23.4375 10.75C22.5625 10.5625 21.5625 10.375 20.5625 10.25C20.875 10.75 21.1875 11.3125 21.5 11.8125C21.8125 12.375 22.125 12.875 22.4375 13.4375ZM16 6.4375C15.375 7.125 14.75 7.875 14.125 8.6875C15.375 8.625 16.625 8.625 17.8125 8.6875C17.25 7.875 16.625 7.125 16 6.4375ZM8.75 2.5625C7.75 3.1875 7.375 5.4375 7.9375 8.4375C8 8.8125 8.0625 9.125 8.1875 9.4375C9.5625 9.125 10.9375 8.9375 12.375 8.8125C13.1875 7.625 14.0625 6.5 15.0625 5.4375C14.875 5.3125 14.75 5.1875 14.5625 5C12.125 2.875 9.8125 2 8.75 2.5625ZM7.1875 19.0625C7.625 17.6875 8.125 16.3125 8.75 15.0625C8.1875 13.75 7.625 12.4375 7.25 11.0625C6.875 11.1875 6.5 11.25 6.125 11.375C3.3125 12.375 1.3125 13.875 1.3125 15C1.4375 15.75 1.875 16.4375 2.5 16.875C3.5625 17.75 5.125 18.375 6.4375 18.8125C6.6875 18.9375 6.9375 19 7.1875 19.0625ZM14.5 25.1875C14.6875 25 14.875 24.8125 15.0625 24.625C14.125 23.5625 13.1875 22.4375 12.375 21.3125C10.9375 21.1875 9.5625 21 8.125 20.6875C8.0625 21 8 21.375 7.9375 21.75C7.375 24.6875 7.75 26.875 8.75 27.5C9.5 27.75 10.25 27.75 10.9375 27.375C12.25 26.875 13.4375 26.125 14.5 25.1875ZM16 23.6875C16.6875 22.9375 17.3125 22.1875 17.875 21.375C17.25 21.4375 16.625 21.4375 16 21.4375C15.375 21.4375 14.75 21.4375 14.125 21.375C14.75 22.25 15.375 23 16 23.6875ZM24.1875 25.5625C24.375 24.1875 24.3125 22.75 24.0625 21.375C24 21.125 23.9375 20.875 23.875 20.625C22.4375 20.9375 21.0625 21.1875 19.625 21.3125C18.8125 22.5 17.9375 23.5625 16.9375 24.625C17.25 24.875 17.5 25.125 17.75 25.375C20.0625 27.3125 22.1875 28.0625 23.1875 27.5C23.75 27 24.125 26.3125 24.1875 25.5625ZM25.3125 18.8125C28.4375 17.8125 30.625 16.1875 30.625 15C30.625 13.875 28.5625 12.375 25.6875 11.375C25.375 11.25 25.0625 11.1875 24.75 11.0625C24.3125 12.4375 23.8125 13.75 23.1875 15C23.8125 16.3125 24.375 17.625 24.8125 19C25 18.9375 25.125 18.875 25.3125 18.8125ZM16 17.875C14.375 17.875 13.125 16.625 13.125 15C13.125 13.4375 14.375 12.1875 16 12.1875C17.5625 12.1875 18.8125 13.4375 18.8125 15C18.8125 16.625 17.5625 17.875 16 17.875Z" fill="#0e5c7c"/>
</svg>
